<svg width="16" height="16" viewBox="0 0 16 16" fill="none" xmlns="http://www.w3.org/2000/svg">
<path fill-rule="evenodd" clip-rule="evenodd" d="M3.41989 1L3.7034 0.503861L3.99132 0H4.57164H11.4288H12.0091L12.297 0.503861L12.5805 1H14.5002H15.6288L15.4929 2.12042L13.916 15.1204L13.8093 16H12.9233H3.07714H2.19111L2.08442 15.1204L0.507491 2.12042L0.371582 1H1.50021H3.41989ZM3.96317 14L2.62885 3H13.3716L12.0373 14H3.96317ZM9.00276 4.92875L8.50276 11.9288L10.4977 12.0712L10.9977 5.07125L9.00276 4.92875ZM5.50276 12.0712L5.00276 5.07125L6.99767 4.92875L7.49767 11.9288L5.50276 12.0712Z" fill="white"/>
</svg>
