<svg width="16" height="13" viewBox="0 0 16 13" fill="none" xmlns="http://www.w3.org/2000/svg">
<path d="M15.5185 1.50029C15.269 1.61093 15.0126 1.7043 14.7505 1.78011C15.0608 1.42925 15.2973 1.01641 15.4417 0.564652C15.474 0.463389 15.4405 0.352549 15.3573 0.286321C15.2741 0.220042 15.1586 0.212103 15.0671 0.266345C14.5106 0.596408 13.9102 0.833609 13.2806 0.972314C12.6465 0.352651 11.7852 0 10.8948 0C9.01523 0 7.4861 1.52908 7.4861 3.40855C7.4861 3.55658 7.49548 3.70379 7.51402 3.84894C5.1817 3.64416 3.0134 2.49781 1.52443 0.671343C1.47136 0.606242 1.38962 0.571157 1.30592 0.577867C1.22218 0.584423 1.14693 0.631648 1.10463 0.704227C0.802632 1.22242 0.642978 1.81509 0.642978 2.41811C0.642978 3.23942 0.936214 4.01869 1.4542 4.62759C1.2967 4.57304 1.14386 4.50487 0.997986 4.42389C0.91967 4.3803 0.824093 4.38097 0.74629 4.42558C0.668435 4.47019 0.619622 4.55225 0.617573 4.64193C0.617215 4.65704 0.617215 4.67215 0.617215 4.68747C0.617215 5.91343 1.27703 7.01717 2.28582 7.61875C2.19915 7.6101 2.11254 7.59755 2.02649 7.5811C1.93777 7.56415 1.84655 7.59524 1.78673 7.6629C1.7268 7.73051 1.70698 7.82476 1.73458 7.91081C2.10798 9.07658 3.06933 9.93406 4.23152 10.1955C3.26761 10.7992 2.16529 11.1155 1.00813 11.1155C0.766675 11.1155 0.52384 11.1013 0.286178 11.0731C0.168116 11.0591 0.0552263 11.1288 0.0150184 11.2411C-0.0251895 11.3534 0.0174257 11.4787 0.117869 11.543C1.60443 12.4962 3.32333 13 5.08864 13C8.55901 13 10.73 11.3635 11.9401 9.99066C13.449 8.27883 14.3144 6.013 14.3144 3.77421C14.3144 3.68068 14.313 3.58624 14.3101 3.49209C14.9055 3.04356 15.418 2.50072 15.8351 1.87681C15.8985 1.78205 15.8916 1.65682 15.8182 1.56959C15.7449 1.48231 15.6227 1.45409 15.5185 1.50029Z" fill="white"/>
</svg>
